<?xml version="1.0" encoding="UTF-8" standalone="no"?>
<!-- Created with Inkscape (http://www.inkscape.org/) -->

<svg
   width="400mm"
   height="400mm"
   viewBox="0 0 400 400"
   version="1.1"
   id="svg1"
   inkscape:version="1.3.2 (091e20e, 2023-11-25, custom)"
   sodipodi:docname="logo.svg"
   xmlns:inkscape="http://www.inkscape.org/namespaces/inkscape"
   xmlns:sodipodi="http://sodipodi.sourceforge.net/DTD/sodipodi-0.dtd"
   xmlns:xlink="http://www.w3.org/1999/xlink"
   xmlns="http://www.w3.org/2000/svg"
   xmlns:svg="http://www.w3.org/2000/svg">
  <sodipodi:namedview
     id="namedview1"
     pagecolor="#000000"
     bordercolor="#000000"
     borderopacity="1"
     inkscape:showpageshadow="2"
     inkscape:pageopacity="0"
     inkscape:pagecheckerboard="0"
     inkscape:deskcolor="#000000"
     inkscape:document-units="mm"
     showgrid="false"
     inkscape:zoom="0.5"
     inkscape:cx="440"
     inkscape:cy="754"
     inkscape:window-width="1920"
     inkscape:window-height="1196"
     inkscape:window-x="-9"
     inkscape:window-y="-9"
     inkscape:window-maximized="1"
     inkscape:current-layer="g13"
     showguides="true">
    <inkscape:grid
       id="grid1"
       units="mm"
       originx="0"
       originy="0"
       spacingx="0.99999997"
       spacingy="0.99999997"
       empcolor="#0099e5"
       empopacity="0.30196078"
       color="#0099e5"
       opacity="0.14901961"
       empspacing="5"
       dotted="false"
       gridanglex="30"
       gridanglez="30"
       visible="false" />
  </sodipodi:namedview>
  <defs
     id="defs1">
    <inkscape:path-effect
       effect="offset"
       id="path-effect26"
       is_visible="true"
       lpeversion="1.2"
       linejoin_type="miter"
       unit="cm"
       offset="0.5"
       miter_limit="4"
       attempt_force_join="false"
       update_on_knot_move="true" />
    <inkscape:path-effect
       effect="offset"
       id="path-effect21"
       is_visible="true"
       lpeversion="1.2"
       linejoin_type="round"
       unit="cm"
       offset="0.5"
       miter_limit="4"
       attempt_force_join="false"
       update_on_knot_move="true" />
    <inkscape:path-effect
       effect="offset"
       id="path-effect20"
       is_visible="true"
       lpeversion="1.2"
       linejoin_type="round"
       unit="cm"
       offset="0.5"
       miter_limit="4"
       attempt_force_join="false"
       update_on_knot_move="true" />
    <inkscape:path-effect
       effect="offset"
       id="path-effect19"
       is_visible="true"
       lpeversion="1.2"
       linejoin_type="round"
       unit="cm"
       offset="0.5"
       miter_limit="4"
       attempt_force_join="false"
       update_on_knot_move="true" />
    <inkscape:path-effect
       effect="offset"
       id="path-effect16"
       is_visible="true"
       lpeversion="1.2"
       linejoin_type="round"
       unit="cm"
       offset="0.666667"
       miter_limit="4"
       attempt_force_join="false"
       update_on_knot_move="true" />
    <linearGradient
       id="linearGradient13"
       inkscape:collect="always">
      <stop
         style="stop-color:#0101ff;stop-opacity:1;"
         offset="0.19826087"
         id="stop13" />
      <stop
         style="stop-color:#00fdfa;stop-opacity:1;"
         offset="0.79652172"
         id="stop14" />
    </linearGradient>
    <inkscape:path-effect
       effect="offset"
       id="path-effect13"
       is_visible="true"
       lpeversion="1.2"
       linejoin_type="round"
       unit="cm"
       offset="0.5"
       miter_limit="4"
       attempt_force_join="false"
       update_on_knot_move="true" />
    <inkscape:path-effect
       effect="offset"
       id="path-effect11"
       is_visible="true"
       lpeversion="1.2"
       linejoin_type="miter"
       unit="cm"
       offset="0.666667"
       miter_limit="4"
       attempt_force_join="false"
       update_on_knot_move="true" />
    <inkscape:path-effect
       effect="offset"
       id="path-effect10"
       is_visible="false"
       lpeversion="1.2"
       linejoin_type="miter"
       unit="cm"
       offset="0.5"
       miter_limit="4"
       attempt_force_join="false"
       update_on_knot_move="true" />
    <linearGradient
       inkscape:collect="always"
       xlink:href="#linearGradient13"
       id="linearGradient14"
       x1="17.499809"
       y1="342.50018"
       x2="382.50006"
       y2="17.499813"
       gradientUnits="userSpaceOnUse" />
  </defs>
  <g
     inkscape:label="Layer 1"
     inkscape:groupmode="layer"
     id="layer1">
    <g
       id="g13"
       inkscape:label="all"
       transform="translate(-1.0395031e-5,19.999981)">
      <g
         id="g25"
         style="display:none">
        <path
           id="rect12"
           style="display:inline;fill:#ffffff;fill-opacity:1;stroke-width:4.99999;stroke-linecap:round;stroke-linejoin:round"
           inkscape:label="back"
           d="m 180,15 a 5,5 0 0 0 -5,5 v 20 a 5,5 0 0 0 5,5 h 7.92969 L 140,92.929687 103.53516,56.464844 A 5,5 0 0 0 100,55 H 60 a 5,5 0 0 0 -3.535156,8.535156 L 112.92969,120 57.929687,175 H 20 a 5,5 0 0 0 -5,5 v 20 a 5,5 0 0 0 5,5 h 60 a 5,5 0 0 0 3.535156,-1.46484 L 140,147.07031 172.92969,180 116.46484,236.46484 A 5,5 0 0 0 115,240 a 5,5 0 0 0 5,5 h 40 a 5,5 0 0 0 3.53516,-1.46484 L 177.125,229.94531 C 175.77547,233.02351 174.99999,236.41323 175,240 v 40 c 4e-5,13.8473 11.15266,25 25,25 h 20 c 3.58677,0 6.97649,-0.77547 10.05469,-2.125 l -33.58985,33.58984 A 5,5 0 0 0 200,345 h 40 a 5,5 0 0 0 3.53516,-1.46484 l 60,-60 A 5,5 0 0 0 305,280 v -75 h 10 v 135 a 5,5 0 0 0 5,5 h 20 a 5,5 0 0 0 5,-5 V 205 h 35 a 5,5 0 0 0 5,-5 v -20 a 5,5 0 0 0 -5,-5 h -35 v -30 h 15 a 5,5 0 0 0 5,-5 v -20 a 5,5 0 0 0 -5,-5 H 260 a 5,5 0 0 0 -5,5 v 20 a 5,5 0 0 0 5,5 h 15 v 22.92969 L 263.53516,156.46484 A 5,5 0 0 0 260,155 h -57.92969 l -35,-35 76.46485,-76.464844 a 5,5 0 0 0 0,-7.070312 l -20,-20 A 5,5 0 0 0 220,15 Z m -65,225 v -10 a 5,5 0 0 0 -5,-5 H 20 a 5,5 0 0 0 -5,5 v 110 a 5,5 0 0 0 5,5 h 140 a 5,5 0 0 0 5,-5 v -50 a 5,5 0 0 0 -5,-5 h -45 z m 107.07031,-55 h 15.85938 l 18.53515,18.53516 A 5,5 0 0 0 260,205 h 15 v 52.92969 l -32.125,32.125 C 244.22453,286.97649 245.00001,283.58676 245,280 v -40 c -4e-5,-13.84731 -11.15266,-25 -25,-25 h -20 c -3.58677,0 -6.97649,0.77547 -10.05469,2.125 z"
           inkscape:path-effect="#path-effect19"
           inkscape:original-d="m 179.99988,19.999645 v 20.000329 h 20.00033 L 140.00025,99.999929 100.00011,59.999787 H 59.999966 L 119.99992,119.99974 59.999966,179.9997 H 19.999823 v 20.00033 h 59.999955 l 60.000472,-59.99996 39.99963,39.99963 -59.99996,59.99995 h 40.00014 l 59.99996,-59.99995 h 19.99981 l 20.00033,20.00033 h 19.99981 v 59.99995 l -79.99976,79.99977 h 39.99962 l 59.99996,-59.99995 v -79.99977 h 20.00033 v 139.99972 h 19.99981 V 200.00003 h 40.00014 V 179.9997 h -40.00014 v -39.99963 h 19.99981 v -20.00033 h -99.99958 v 20.00033 h 19.99981 V 179.9997 L 260.00016,159.99988 H 200.00021 L 160.00006,119.99974 239.99983,39.999974 220.00002,19.999645 Z m 20.00033,200.000195 c -11.07995,0 -20.00036,8.91986 -20.00033,19.99981 v 40.00015 c 3e-5,11.07993 8.92038,20.00032 20.00033,20.00032 h 19.99981 c 11.07996,0 19.99984,-8.92039 19.99981,-20.00032 v -40.00015 c -3e-5,-11.07995 -8.91985,-19.99981 -19.99981,-19.99981 z m -180.000387,9.99991 v 110.00052 l 140.000237,-5.2e-4 v -49.99953 h -50.00005 v -60.00047 z"
           sodipodi:nodetypes="ccccccccccccccccccccccccccccccccccccccccccccsccssccssccccccc" />
        <path
           id="rect1-8"
           style="display:inline;fill:url(#linearGradient14);fill-opacity:1;stroke:#000000;stroke-width:5;stroke-linecap:round;stroke-linejoin:round;stroke-dasharray:none;stroke-opacity:1;paint-order:normal"
           inkscape:label="main"
           d="M 179.99987,19.999813 V 40.000142 H 200.0002 L 140.00024,100.0001 99.999995,59.999996 H 59.999845 L 119.99991,119.99991 59.999952,179.99987 H 19.99981 v 20.00033 h 59.99995 l 60.00048,-59.99996 39.99963,39.99963 -59.99996,59.99995 h 40.00014 l 59.99996,-59.99995 h 19.99981 l 20.00033,20.00033 h 19.99981 l 1.2e-4,59.99996 -79.99997,80.00002 39.99983,-2.5e-4 59.99996,-59.99995 -1.2e-4,-79.99978 20.00021,-2.3e-4 1.2e-4,139.99973 h 19.99981 l -1.2e-4,-139.99973 40.00026,2.3e-4 v -20.00033 l -40.00026,-2.3e-4 v -39.99963 l 19.99993,2.3e-4 v -20.00033 h -99.99958 v 20.00033 h 19.99981 v 39.99963 L 260.00015,160.00005 H 200.0002 L 160.00005,119.99991 239.99982,40.000142 220.00001,19.999813 Z m 119.99991,120.000427 20.00021,-2.3e-4 v 39.99963 l -20.00021,2.3e-4 z m -99.99958,79.99977 c -11.07998,0 -20.00036,8.91983 -20.00033,19.99981 l 1.2e-4,40.00016 c 3e-5,11.07998 8.92035,20.00033 20.00033,20.00033 h 19.99981 c 11.07999,0 19.99984,-8.92035 19.99981,-20.00033 l -1.2e-4,-40.00016 c -3e-5,-11.07998 -8.91982,-19.99981 -19.99981,-19.99981 z m 0,19.99981 h 19.99981 l 1.2e-4,40.00016 h -19.99981 z"
           sodipodi:nodetypes="cccccccccccccccccccccccccccccccccccccccccccccccccsssssssssccccc" />
        <path
           id="rect5"
           style="display:inline;fill:#000000;fill-opacity:1;stroke:none;stroke-width:0.289999;stroke-opacity:1"
           inkscape:label="sub"
           d="m 19.999823,229.99975 v 50.00005 h 10.000423 v -27.99985 l 5.599659,27.99985 h 8.799979 l 5.600175,-27.99985 -5.17e-4,27.99985 h 9.999907 V 230.00026 H 45.599811 l -5.599658,27.99984 -5.600175,-27.99984 z m 49.999532,5.1e-4 v 50.00005 h 10.000423 30.000232 v -9.9999 H 79.999778 v -9.99991 l 15.000118,-5.2e-4 9.999904,-9.99939 H 79.999778 v -10.00042 l 19.999813,-5.2e-4 10.000419,-9.99939 H 79.999778 Z m -49.999532,59.99996 v 4.99969 44.99984 h 10.000423 v -15.99954 l 5.126819,-5.8105 14.539681,21.81004 h 10.33322 L 41.013011,311.5188 59.999966,290.00022 H 48.000181 l -17.999935,20.39979 v -20.39979 z m 100.035237,0 v 49.99953 h 9.96477 v -34.99993 l 20.00033,34.99993 h 9.9999 v -49.99953 h -9.9999 v 34.99993 l -20.00033,-34.99993 z m -50.035705,5.2e-4 v 50.00004 h 10.000423 l 30.000232,-5.1e-4 v -10.00043 l -30.000232,5.2e-4 v -9.99991 h 15.000118 l 9.999904,-10.00094 -25.000022,5.2e-4 v -9.99887 H 99.999591 L 110.00001,290.00074 H 79.999778 Z" />
        <g
           id="g21"
           style="display:none">
          <path
             d="m 300,75 c -8.30942,7.4e-5 -15.00035,6.690441 -15,15 8e-5,8.309443 6.69048,14.99992 15,15 8.30943,-8e-5 14.99992,-6.690714 15,-15 3.5e-4,-8.309728 -6.6905,-14.999926 -15,-15 z m -75,5 c -5.53743,-4e-5 -10,4.462591 -10,10 0,5.537409 4.46262,9.99996 10,10 h 27.5 c 5.53743,4e-5 10,-4.462604 10,-10 0,-5.537396 -4.46262,-9.99996 -10,-10 z m 122.5,0 c -5.53734,4e-5 -10,4.462604 -10,10 0,5.537396 4.46261,10.00004 10,10 H 375 c 5.53734,-4e-5 10,-4.462604 10,-10 0,-5.537396 -4.46261,-10.00004 -10,-10 z"
             style="fill:#ffffff;fill-opacity:1;stroke-width:4.99999;stroke-linecap:round;stroke-linejoin:round"
             id="path1"
             inkscape:path-effect="#path-effect20"
             inkscape:original-d="m 299.99986,79.999794 c -5.52298,4.9e-5 -10.00014,4.47745 -9.99991,10.00042 5e-5,5.52278 4.47714,9.999856 9.99991,9.999906 5.52276,-5e-5 9.99985,-4.477126 9.9999,-9.999906 2.3e-4,-5.52297 -4.47693,-10.000371 -9.9999,-10.00042 z m -75.00008,5.00021 c -2.76997,-2e-5 -4.99969,2.23022 -4.99969,5.00021 0,2.76999 2.22972,4.99968 4.99969,4.9997 h 27.50013 c 2.76998,2e-5 5.00022,-2.22971 5.00022,-4.9997 0,-2.76999 -2.23024,-5.00019 -5.00022,-5.00021 z m 122.50002,0 c -2.76998,2e-5 -4.9997,2.23022 -4.9997,5.00021 0,2.76999 2.22972,4.99972 4.9997,4.9997 h 27.50013 c 2.76998,-2e-5 5.00021,-2.22971 5.00021,-4.9997 0,-2.76999 -2.23023,-5.00023 -5.00021,-5.00021 z" />
          <path
             id="rect16"
             style="fill:none;stroke:#000000;stroke-width:2.5;stroke-linecap:round;stroke-linejoin:round"
             transform="translate(1.0395031e-5,-19.999981)"
             d="m 294.99999,109.99999 h 9.99999 z m 4.99999,5 v -10 z m 1e-5,-14.999996 c -5.52298,4.6e-5 -10.00015,4.477446 -9.99991,10.000436 6e-5,5.52277 4.47714,9.99984 9.99991,9.99989 5.52277,-5e-5 9.99985,-4.47712 9.99991,-9.99989 2.4e-4,-5.52299 -4.47693,-10.00039 -9.99991,-10.000436 z m -75.00031,4.999786 c -2.76999,-4e-5 -4.99969,2.23021 -4.99969,5.00021 0,2.76999 2.2297,4.99965 4.99969,4.99969 l 27.50037,4.3e-4 c 2.76999,5e-5 5.00021,-2.2297 5.00021,-4.99969 0,-2.77 -2.23022,-5.00016 -5.00021,-5.00021 z m 122.50025,4.3e-4 c -2.76999,5e-5 -4.99969,2.23021 -4.99969,5.00021 0,2.77 2.2297,4.99974 4.99969,4.99969 l 27.49984,-4.3e-4 c 2.76999,-4e-5 5.00021,-2.22969 5.00021,-4.99969 0,-2.77 -2.23022,-5.00025 -5.00021,-5.00021 z"
             inkscape:label="tap"
             sodipodi:nodetypes="cccccccccccssssssssssssss" />
        </g>
        <g
           id="g22"
           style="display:none"
           transform="matrix(1.2666344,0,0,1.4666573,-90.186393,-7.1109288)">
          <path
             d="m 319.72852,16.404297 a 3.6684283,3.6684283 0 0 0 -3.96875,1.875 l -20.39063,38.388672 3.36523,-23.285157 a 3.6684283,3.6684283 0 0 0 -2.45703,-4 l -17.00781,-5.748046 a 3.6684283,3.6684283 0 0 0 -4.76562,4.216796 l 7.78711,37.703125 a 3.6684283,3.6684283 0 0 0 5.61132,2.320313 l 5.08789,-3.357422 a 3.6684283,3.6684283 0 0 0 1.61133,-2.537109 l 0.0293,-0.201172 a 3.6684283,3.6684283 0 0 0 2.96289,1.884765 l 6.03711,0.263672 a 3.6684283,3.6684283 0 0 0 2.63672,-0.957031 l 0.9375,-0.857422 a 3.6684283,3.6684283 0 0 0 1.27734,2.324219 l 4.20703,3.412109 a 3.6684283,3.6684283 0 0 0 2.83203,0.78125 l 42.82422,-6.15625 a 3.6684283,3.6684283 0 0 0 2.79883,-2.070312 l 11.32813,-24.115235 a 3.6684283,3.6684283 0 0 0 -4.85352,-4.892578 l -54.00781,24.855469 17.70898,-16.197266 a 3.6684283,3.6684283 0 0 0 0.71485,-4.517578 l -9.84375,-17.347656 a 3.6684283,3.6684283 0 0 0 -2.46289,-1.785156 z"
             style="fill:#ffffff;fill-opacity:1;stroke-width:4.99999;stroke-linecap:round;stroke-linejoin:round"
             id="path1-4"
             inkscape:path-effect="#path-effect21"
             inkscape:original-d="m 319.00009,20.000053 -21.24522,39.999626 6.03581,0.264583 25.05377,-22.916429 z m -40.90397,7.109127 7.78764,37.703642 5.08703,-3.357935 4.13205,-28.597219 z m 91.05646,7.619174 -58.35871,26.858824 4.20594,3.412712 42.82478,-6.15518 z" />
          <path
             id="rect19"
             style="fill:#ffffff;fill-opacity:1;stroke:#000000;stroke-width:2.5;stroke-linecap:round;stroke-linejoin:round;stroke-dasharray:none;stroke-opacity:1"
             d="m 285.88405,64.812926 -7.78784,-37.70354 17.00658,5.748355 -4.13185,28.597482 z m 11.87088,-4.812911 21.24506,-39.999998 9.84457,17.347852 -25.054,22.916729 z m 13.03881,1.5875 58.35918,-26.858887 -11.32811,24.11595 -42.82482,6.155437 z"
             sodipodi:nodetypes="ccccccccccccccc"
             inkscape:label="ant" />
        </g>
      </g>
      <g
         id="g26">
        <path
           d="M 15,225 V 345 H 165 V 285 H 115 V 225 Z"
           style="display:inline;fill:#ffffff;fill-opacity:1;stroke-width:4.99999;stroke-linecap:round;stroke-linejoin:round"
           id="path1-9"
           inkscape:path-effect="#path-effect26"
           inkscape:original-d="m 19.999822,229.99975 v 110.00052 l 140.000238,-5.2e-4 v -49.99953 h -50.00005 v -60.00047 z"
           transform="translate(2.852934,-2.5e-4)" />
        <path
           id="rect1-8-2"
           style="display:inline;fill:#ffffff;fill-opacity:1;stroke:none;stroke-width:5;stroke-linecap:round;stroke-linejoin:round;stroke-dasharray:none;stroke-opacity:1;paint-order:normal"
           inkscape:label="main"
           d="M 179.99987,19.999809 V 40.000138 H 200.0002 L 140.00024,100.0001 99.999992,59.999992 H 59.999842 L 119.99991,119.99991 59.999949,179.99987 H 19.999807 v 20.00033 h 59.99995 l 60.000483,-59.99996 39.99963,39.99963 -59.99996,59.99995 h 40.00014 l 59.99996,-59.99995 h 19.99981 l 20.00033,20.00033 h 19.99981 l 1.2e-4,59.99996 -79.99997,80.00002 39.99983,-2.5e-4 59.99996,-59.99995 -1.2e-4,-79.99978 20.00021,-2.3e-4 1.2e-4,139.99973 h 19.99981 l -1.2e-4,-139.99973 40.00026,2.3e-4 v -20.00033 l -40.00026,-2.3e-4 v -39.99963 l 19.99993,2.3e-4 v -20.00033 h -99.99958 v 20.00033 h 19.99981 v 39.99963 L 260.00015,160.00005 H 200.0002 L 160.00005,119.99991 239.99982,40.000138 220.00001,19.999809 Z m 119.99991,120.000431 20.00021,-2.3e-4 v 39.99963 l -20.00021,2.3e-4 z m -99.99958,79.99977 c -11.07998,0 -20.00036,8.91983 -20.00033,19.99981 l 1.2e-4,40.00016 c 3e-5,11.07998 8.92035,20.00033 20.00033,20.00033 h 19.99981 c 11.07999,0 19.99984,-8.92035 19.99981,-20.00033 l -1.2e-4,-40.00016 c -3e-5,-11.07998 -8.91982,-19.99981 -19.99981,-19.99981 z m 0,19.99981 h 19.99981 l 1.2e-4,40.00016 h -19.99981 z"
           sodipodi:nodetypes="cccccccccccccccccccccccccccccccccccccccccccccccccsssssssssccccc" />
        <path
           id="rect5-8"
           style="display:inline;fill:#000000;fill-opacity:1;stroke:none;stroke-width:0.289999;stroke-opacity:1"
           inkscape:label="sub"
           d="m 22.852756,229.9995 v 50.00005 H 32.853179 V 251.9997 l 5.599659,27.99985 h 8.799979 l 5.600175,-27.99985 -5.17e-4,27.99985 h 9.999907 V 230.00001 H 48.452744 l -5.599658,27.99984 -5.600175,-27.99984 z m 49.999532,5.1e-4 v 50.00005 h 10.000423 30.000229 v -9.99991 H 82.852711 v -9.99991 l 15.000122,-5.2e-4 9.999897,-9.99939 H 82.852711 V 239.99991 L 102.85252,239.99939 112.85294,230 H 82.852711 Z m -49.999532,59.99996 v 4.99969 44.99984 h 10.000423 v -15.99955 l 5.126819,-5.8105 14.539681,21.81005 h 10.33322 L 43.865944,311.51855 62.852899,289.99997 H 50.853114 l -17.999935,20.39979 v -20.39979 z m 100.035234,0 v 49.99953 h 9.96477 v -34.99993 l 20.00033,34.99993 h 9.9999 v -49.99953 h -9.9999 v 34.99993 l -20.00033,-34.99993 z m -50.035702,5.2e-4 v 50.00004 h 10.000423 l 30.000229,-5.1e-4 v -10.00043 l -30.000229,5.2e-4 v -9.99991 h 15.000122 l 9.999897,-10.00095 -25.000019,5.2e-4 v -9.99887 h 19.999809 l 10.00042,-10.00042 H 82.852711 Z" />
      </g>
    </g>
  </g>
</svg>
