<?xml version="1.0" encoding="UTF-8" standalone="no"?>
<svg
   xmlns:dc="http://purl.org/dc/elements/1.1/"
   xmlns:cc="http://creativecommons.org/ns#"
   xmlns:rdf="http://www.w3.org/1999/02/22-rdf-syntax-ns#"
   xmlns:svg="http://www.w3.org/2000/svg"
   xmlns="http://www.w3.org/2000/svg"
   viewBox="0 0 528.70667 370.37332"
   height="370.37332"
   width="528.70667"
   xml:space="preserve"
   id="svg2"
   version="1.1"><metadata
     id="metadata8"><rdf:RDF><cc:Work
         rdf:about=""><dc:format>image/svg+xml</dc:format><dc:type
           rdf:resource="http://purl.org/dc/dcmitype/StillImage" /></cc:Work></rdf:RDF></metadata><defs
     id="defs6" /><g
     transform="matrix(1.3333333,0,0,-1.3333333,0,370.37333)"
     id="g10"><g
       transform="scale(0.1)"
       id="g12"><path
         id="path14"
         style="fill:#ed1838;fill-opacity:1;fill-rule:nonzero;stroke:none"
         d="M 1587.28,793.648 2615.56,1390.33 1587.28,1984.11 Z M 434.48,84 C 263.578,130.352 130.34,266.48 81.1016,434.48 0,744.41 0,1390.33 0,1390.33 c 0,0 0,645.92 81.1016,952.95 49.2384,170.89 182.4764,304.14 353.3784,350.48 307.028,84 1546.73,84 1546.73,84 0,0 1242.61,0 1549.64,-84 173.79,-46.34 304.13,-179.59 350.49,-350.48 83.98,-307.03 83.98,-952.95 83.98,-952.95 0,0 0,-645.92 -83.98,-955.85 C 3834.98,266.48 3704.64,130.352 3530.85,84 3223.82,0 1981.21,0 1981.21,0 c 0,0 -1239.702,0 -1546.73,84" /><path
         id="path16"
         style="fill:#ffffff;fill-opacity:1;fill-rule:nonzero;stroke:none"
         d="M 1587.28,793.648 2615.56,1390.33 1587.28,1984.11 Z" /></g></g></svg>